<?xml version="1.0" standalone="no"?>
<!DOCTYPE svg PUBLIC "-//W3C//DTD SVG 20010904//EN"
 "http://www.w3.org/TR/2001/REC-SVG-20010904/DTD/svg10.dtd">
<svg version="1.0" xmlns="http://www.w3.org/2000/svg"
 width="1128.000000pt" height="1128.000000pt" viewBox="0 0 1128.000000 1128.000000"
 preserveAspectRatio="xMidYMid meet">
<metadata>
Created by potrace 1.11, written by Peter Selinger 2001-2013
</metadata>
<g transform="translate(0.000000,1128.000000) scale(0.100000,-0.100000)"
fill="#000000" stroke="none">
<path d="M5384 11265 c-405 -60 -828 -285 -1039 -554 l-47 -59 -66 24 c-450
170 -1040 93 -1487 -193 -389 -250 -679 -665 -760 -1089 -9 -43 -17 -79 -18
-81 -2 -1 -38 -9 -81 -18 -424 -81 -839 -371 -1089 -760 -286 -447 -363 -1037
-193 -1487 l24 -66 -59 -47 c-227 -178 -430 -518 -520 -867 -65 -257 -65 -599
0 -856 90 -349 293 -689 520 -867 l59 -47 -24 -66 c-170 -450 -93 -1040 193
-1487 250 -389 665 -679 1089 -760 43 -9 79 -17 81 -18 1 -2 9 -38 18 -81 81
-424 371 -839 760 -1089 447 -286 1037 -363 1487 -193 l66 24 47 -59 c178
-227 518 -430 867 -520 257 -65 599 -65 856 0 349 90 689 293 867 520 l47 59
66 -24 c450 -170 1040 -93 1487 193 389 250 679 665 760 1089 9 43 17 79 18
81 2 1 38 9 81 18 424 81 839 371 1089 760 286 447 363 1037 193 1487 l-24 66
59 47 c227 178 430 518 520 867 65 257 65 599 0 856 -90 349 -293 689 -520
867 l-59 47 24 66 c170 450 93 1040 -193 1487 -250 389 -665 679 -1089 760
-43 9 -79 17 -81 18 -1 2 -9 38 -18 81 -81 424 -371 839 -760 1089 -447 286
-1037 363 -1487 193 l-66 -24 -47 59 c-178 227 -518 430 -867 520 -190 48
-485 63 -684 34z m1886 -1990 l0 -65 -1630 0 -1630 0 0 65 0 65 1630 0 1630 0
0 -65z m-2560 -1259 c294 -59 489 -221 575 -478 47 -141 55 -238 55 -651 0
-397 -3 -424 -45 -441 -9 -3 -168 -6 -354 -6 -258 0 -341 3 -355 13 -29 22
-36 83 -36 363 0 267 0 271 -25 320 -28 57 -87 100 -149 109 -22 4 -138 5
-256 3 -214 -3 -215 -3 -262 -30 -34 -21 -53 -41 -72 -80 l-26 -52 0 -1446 0
-1446 26 -52 c19 -39 38 -59 72 -80 l47 -27 250 0 250 0 47 27 c34 21 53 41
72 80 l26 52 0 270 c0 280 7 341 36 363 14 10 97 13 355 13 186 0 345 -3 354
-6 42 -17 45 -44 45 -441 0 -413 -8 -510 -55 -651 -72 -214 -224 -367 -442
-443 -127 -44 -200 -51 -603 -56 -551 -7 -714 10 -887 91 -225 107 -355 297
-398 583 -22 146 -22 3300 0 3446 61 403 305 628 725 667 160 14 942 4 1030
-14z m1990 11 c26 -9 38 -21 47 -47 9 -26 12 -278 12 -992 l1 -958 385 0 385
0 0 964 c0 615 4 974 10 991 19 51 50 55 392 54 336 0 373 -5 395 -49 19 -37
19 -4663 0 -4700 -22 -44 -59 -49 -395 -49 -342 -1 -373 3 -392 54 -6 17 -10
376 -10 991 l0 964 -385 0 -385 0 -1 -957 c0 -715 -3 -967 -12 -993 -19 -55
-41 -59 -387 -59 -316 -1 -372 5 -395 36 -12 15 -14 374 -14 2363 0 2576 -6
2374 61 2390 56 13 648 11 688 -3z m570 -6277 l0 -60 -1630 0 -1630 0 0 60 0
60 1630 0 1630 0 0 -60z"/>
</g>
</svg>
